# xmcd
#
# Track frame offsets:
#	150
#	10474
#	22625
#	36598
#	49265
#	62836
#	72868
#	86242
#	99898
#	111473
#	122109
#	135006
#	148155
#	159759
#
# Disc length: 2285 seconds
#
# Revision: 1
# Processed by: cddbd v1.5.2PL0 Copyright (c) Steve Scherf et al.
# Submitted via: audiograbber 1.83.01
#
DISCID=ba08eb0e
DTITLE=B.B.King - Beale Street Blues Boys 04
DYEAR=1955
DGENRE=Blues
TTITLE0=B.B.King - I'm in Love (Ling - Taub)
TTITLE1=B.B.King - Shut Your Mouth (King - Taub)
TTITLE2=B.B.King - Boogie Rock (King)
TTITLE3=B.B.King - Ten Long Years (King - Taub)
TTITLE4=B.B.King - Crying Won't Help You (Whittaker)
TTITLE5=B.B.King - Jump With You Baby (King - Taub)
TTITLE6=B.B.King - Lonely and Blue (Costa - Erby)
TTITLE7=B.B.King - Ruby Lee (King - Taub)
TTITLE8=B.B.King - Sixteen Tons (Travis)
TTITLE9=B.B.King - Talkin' the Blues (King)
TTITLE10=B.B.King - I'm Cracking Up Over You (King - Taub)
TTITLE11=B.B.King - Bad Luck (Hunter)
TTITLE12=B.B.King - Did You Ever Love a Woman (Moore)
TTITLE13=B.B.King-Kong - Bim Bam (Davis - Josea)
EXTD=
EXTT0=arr.by Ledeburgh
EXTT1=
EXTT2=
EXTT3=
EXTT4=
EXTT5=
EXTT6=
EXTT7=
EXTT8=
EXTT9=
EXTT10=
EXTT11=
EXTT12=
EXTT13=
PLAYORDER=
